<mxfile host="app.diagrams.net" modified="2024-01-10T02:50:31.894Z" agent="Mozilla/5.0 (Windows NT 10.0; Win64; x64) AppleWebKit/537.36 (KHTML, like Gecko) Chrome/120.0.0.0 Safari/537.36 Edg/120.0.0.0" etag="qn2h04lBULXVBVZLUFLj" version="22.1.18" type="device">
  <diagram name="PÃ¡gina-1" id="OXESBTz56by222q5dXss">
    <mxGraphModel dx="1426" dy="751" grid="1" gridSize="10" guides="1" tooltips="1" connect="1" arrows="1" fold="1" page="1" pageScale="1" pageWidth="827" pageHeight="1169" math="0" shadow="0">
      <root>
        <mxCell id="0" />
        <mxCell id="1" parent="0" />
        <mxCell id="jk-j9aOW9QWllTh36-_i-5" value="IPhone&lt;br&gt;" style="swimlane;fontStyle=1;align=center;verticalAlign=top;childLayout=stackLayout;horizontal=1;startSize=26;horizontalStack=0;resizeParent=1;resizeParentMax=0;resizeLast=0;collapsible=1;marginBottom=0;whiteSpace=wrap;html=1;" parent="1" vertex="1">
          <mxGeometry x="320" y="510" width="190" height="150" as="geometry" />
        </mxCell>
        <mxCell id="jk-j9aOW9QWllTh36-_i-6" value="- id: long&lt;br&gt;- model: String&lt;br&gt;- isPhoneRunning: boolean&lt;br style=&quot;border-color: var(--border-color);&quot;&gt;- isBrowserRunning: boolean&lt;br style=&quot;border-color: var(--border-color);&quot;&gt;- isMusicRunning: boolean" style="text;strokeColor=none;fillColor=none;align=left;verticalAlign=top;spacingLeft=4;spacingRight=4;overflow=hidden;rotatable=0;points=[[0,0.5],[1,0.5]];portConstraint=eastwest;whiteSpace=wrap;html=1;" parent="jk-j9aOW9QWllTh36-_i-5" vertex="1">
          <mxGeometry y="26" width="190" height="84" as="geometry" />
        </mxCell>
        <mxCell id="jk-j9aOW9QWllTh36-_i-7" value="" style="line;strokeWidth=1;fillColor=none;align=left;verticalAlign=middle;spacingTop=-1;spacingLeft=3;spacingRight=3;rotatable=0;labelPosition=right;points=[];portConstraint=eastwest;strokeColor=inherit;" parent="jk-j9aOW9QWllTh36-_i-5" vertex="1">
          <mxGeometry y="110" width="190" height="8" as="geometry" />
        </mxCell>
        <mxCell id="jk-j9aOW9QWllTh36-_i-8" value="+ run(String): void&lt;br&gt;" style="text;strokeColor=none;fillColor=none;align=left;verticalAlign=top;spacingLeft=4;spacingRight=4;overflow=hidden;rotatable=0;points=[[0,0.5],[1,0.5]];portConstraint=eastwest;whiteSpace=wrap;html=1;" parent="jk-j9aOW9QWllTh36-_i-5" vertex="1">
          <mxGeometry y="118" width="190" height="32" as="geometry" />
        </mxCell>
        <mxCell id="jk-j9aOW9QWllTh36-_i-10" value="&lt;p style=&quot;margin:0px;margin-top:4px;text-align:center;&quot;&gt;&lt;i&gt;&amp;lt;&amp;lt;Interface&amp;gt;&amp;gt;&lt;/i&gt;&lt;br&gt;&lt;b&gt;Phone&lt;/b&gt;&lt;/p&gt;&lt;hr size=&quot;1&quot;&gt;&lt;p style=&quot;margin:0px;margin-left:4px;&quot;&gt;+ call(int): void&lt;/p&gt;&lt;p style=&quot;margin:0px;margin-left:4px;&quot;&gt;+ answer(): void&lt;/p&gt;" style="verticalAlign=top;align=left;overflow=fill;fontSize=12;fontFamily=Helvetica;html=1;whiteSpace=wrap;direction=south;" parent="1" vertex="1">
          <mxGeometry x="144" y="310" width="140" height="80" as="geometry" />
        </mxCell>
        <mxCell id="jk-j9aOW9QWllTh36-_i-11" value="&lt;p style=&quot;margin:0px;margin-top:4px;text-align:center;&quot;&gt;&lt;i&gt;&amp;lt;&amp;lt;Interface&amp;gt;&amp;gt;&lt;/i&gt;&lt;br&gt;&lt;b&gt;Player&lt;/b&gt;&lt;/p&gt;&lt;hr size=&quot;1&quot;&gt;&lt;p style=&quot;margin:0px;margin-left:4px;&quot;&gt;+ play(): void&lt;/p&gt;&lt;p style=&quot;margin:0px;margin-left:4px;&quot;&gt;+ pause(): void&lt;/p&gt;&lt;p style=&quot;margin:0px;margin-left:4px;&quot;&gt;+ stop(): void&lt;/p&gt;&lt;p style=&quot;margin:0px;margin-left:4px;&quot;&gt;+ next(): void&lt;/p&gt;&lt;p style=&quot;margin:0px;margin-left:4px;&quot;&gt;+ previous(): void&lt;/p&gt;" style="verticalAlign=top;align=left;overflow=fill;fontSize=12;fontFamily=Helvetica;html=1;whiteSpace=wrap;direction=south;" parent="1" vertex="1">
          <mxGeometry x="344" y="310" width="140" height="120" as="geometry" />
        </mxCell>
        <mxCell id="jk-j9aOW9QWllTh36-_i-12" value="&lt;p style=&quot;margin:0px;margin-top:4px;text-align:center;&quot;&gt;&lt;i&gt;&amp;lt;&amp;lt;Interface&amp;gt;&amp;gt;&lt;/i&gt;&lt;br&gt;&lt;b&gt;Browser&lt;/b&gt;&lt;/p&gt;&lt;hr size=&quot;1&quot;&gt;&lt;p style=&quot;margin:0px;margin-left:4px;&quot;&gt;+ navigate(String): void&lt;/p&gt;" style="verticalAlign=top;align=left;overflow=fill;fontSize=12;fontFamily=Helvetica;html=1;whiteSpace=wrap;direction=south;" parent="1" vertex="1">
          <mxGeometry x="544" y="310" width="140" height="70" as="geometry" />
        </mxCell>
        <mxCell id="jk-j9aOW9QWllTh36-_i-13" value="" style="endArrow=block;dashed=1;endFill=0;endSize=12;html=1;rounded=0;entryX=1;entryY=0.5;entryDx=0;entryDy=0;" parent="1" source="jk-j9aOW9QWllTh36-_i-5" target="jk-j9aOW9QWllTh36-_i-10" edge="1">
          <mxGeometry width="160" relative="1" as="geometry">
            <mxPoint x="364" y="520" as="sourcePoint" />
            <mxPoint x="204" y="520" as="targetPoint" />
            <Array as="points">
              <mxPoint x="414" y="460" />
              <mxPoint x="214" y="460" />
            </Array>
          </mxGeometry>
        </mxCell>
        <mxCell id="jk-j9aOW9QWllTh36-_i-14" value="" style="endArrow=block;dashed=1;endFill=0;endSize=12;html=1;rounded=0;" parent="1" source="jk-j9aOW9QWllTh36-_i-5" target="jk-j9aOW9QWllTh36-_i-11" edge="1">
          <mxGeometry width="160" relative="1" as="geometry">
            <mxPoint x="604" y="320" as="sourcePoint" />
            <mxPoint x="454" y="450" as="targetPoint" />
          </mxGeometry>
        </mxCell>
        <mxCell id="jk-j9aOW9QWllTh36-_i-15" value="" style="endArrow=block;dashed=1;endFill=0;endSize=12;html=1;rounded=0;" parent="1" source="jk-j9aOW9QWllTh36-_i-5" target="jk-j9aOW9QWllTh36-_i-12" edge="1">
          <mxGeometry width="160" relative="1" as="geometry">
            <mxPoint x="734" y="440" as="sourcePoint" />
            <mxPoint x="574" y="440" as="targetPoint" />
            <Array as="points">
              <mxPoint x="414" y="460" />
              <mxPoint x="614" y="460" />
            </Array>
          </mxGeometry>
        </mxCell>
        <mxCell id="yYDrqW8ZvksfiEC6qvMu-1" value="App" style="swimlane;fontStyle=1;align=center;verticalAlign=top;childLayout=stackLayout;horizontal=1;startSize=26;horizontalStack=0;resizeParent=1;resizeParentMax=0;resizeLast=0;collapsible=1;marginBottom=0;whiteSpace=wrap;html=1;" parent="1" vertex="1">
          <mxGeometry x="334" y="80" width="160" height="52" as="geometry" />
        </mxCell>
        <mxCell id="yYDrqW8ZvksfiEC6qvMu-4" value="+ run(String): void" style="text;strokeColor=none;fillColor=none;align=left;verticalAlign=top;spacingLeft=4;spacingRight=4;overflow=hidden;rotatable=0;points=[[0,0.5],[1,0.5]];portConstraint=eastwest;whiteSpace=wrap;html=1;" parent="yYDrqW8ZvksfiEC6qvMu-1" vertex="1">
          <mxGeometry y="26" width="160" height="26" as="geometry" />
        </mxCell>
        <mxCell id="yYDrqW8ZvksfiEC6qvMu-5" value="Extends" style="endArrow=block;endSize=16;endFill=0;html=1;rounded=0;" parent="1" source="jk-j9aOW9QWllTh36-_i-10" target="yYDrqW8ZvksfiEC6qvMu-1" edge="1">
          <mxGeometry width="160" relative="1" as="geometry">
            <mxPoint x="310" y="190" as="sourcePoint" />
            <mxPoint x="470" y="190" as="targetPoint" />
            <Array as="points">
              <mxPoint x="214" y="210" />
              <mxPoint x="414" y="210" />
            </Array>
          </mxGeometry>
        </mxCell>
        <mxCell id="yYDrqW8ZvksfiEC6qvMu-6" value="Extends" style="endArrow=block;endSize=16;endFill=0;html=1;rounded=0;" parent="1" source="jk-j9aOW9QWllTh36-_i-12" target="yYDrqW8ZvksfiEC6qvMu-1" edge="1">
          <mxGeometry width="160" relative="1" as="geometry">
            <mxPoint x="530" y="298" as="sourcePoint" />
            <mxPoint x="730" y="120" as="targetPoint" />
            <Array as="points">
              <mxPoint x="614" y="210" />
              <mxPoint x="414" y="210" />
            </Array>
          </mxGeometry>
        </mxCell>
        <mxCell id="yYDrqW8ZvksfiEC6qvMu-7" value="Extends" style="endArrow=block;endSize=16;endFill=0;html=1;rounded=0;" parent="1" source="jk-j9aOW9QWllTh36-_i-11" target="yYDrqW8ZvksfiEC6qvMu-1" edge="1">
          <mxGeometry x="-0.3258" width="160" relative="1" as="geometry">
            <mxPoint x="624" y="320" as="sourcePoint" />
            <mxPoint x="424" y="142" as="targetPoint" />
            <Array as="points">
              <mxPoint x="414" y="250" />
            </Array>
            <mxPoint as="offset" />
          </mxGeometry>
        </mxCell>
      </root>
    </mxGraphModel>
  </diagram>
</mxfile>
